<svg xmlns="http://www.w3.org/2000/svg" width="1896.206" height="509.458" viewBox="0 0 1896.206 509.458">
  <g id="logo" transform="translate(-779.155 -774.176)">
    <path id="Path_1" data-name="Path 1" d="M2040.791,774.176h-79.848v446.571q108.849,3.745,216.794,10.956v-78.677q-68.287-4.555-136.946-7.741Zm634.57.045h-87.714L2529.83,908.232l-51.943-134.011h-86.4l92.844,239.46L2382.984,1248.6q42.057,4.1,83.927,8.735l58.946-136.589,58.374,150.569q45.6,5.864,91,12.309l.133-.052L2571.341,1015.3Zm-988.514,442.623,79.852-.017V1035.174h108.244V956.5H1766.7V853.61h143.059V774.225h-222.91ZM1388.665,853.6h83.572v367.917q39.857-1.507,79.849-2.529V853.6h83.569V774.221h-246.99Zm-272.989,390.784q110.393-10.032,221.8-16.477v-78.686q-71.179,4.114-141.952,9.7V1039.81c30.957-.308,71.721-1.253,107.834-.8V960.322c-28.851-.07-75.221.4-107.834.82V853.61h141.952V774.225h-221.8ZM959.041,1062.5l-104-288.277H779.155v509.412Q819,1277.96,859,1272.757V995.74l92.473,265.642q43.627-5.058,87.415-9.57V774.221h-79.85ZM2243.566,1236.44q39.983,3.06,79.861,6.593V774.221h-79.861Z" transform="translate(0 0)" fill="#ed1c24"/>
  </g>
</svg>
